<svg width="102" height="117" viewBox="0 0 102 117" fill="none" xmlns="http://www.w3.org/2000/svg">
<path d="M62.5922 57.0146L71.0491 48.6167L76.2267 53.7583L62.5922 67.2979L52.6396 57.4146L57.8173 52.2729L62.5922 57.0146ZM14.7276 87.75H44.1827V95.0625H14.7276V87.75ZM44.1827 36.5625H14.7276V29.25H44.1827V36.5625ZM44.1827 65.8125H14.7276V58.5H44.1827V65.8125ZM76.2267 24.5083L62.5922 38.0479L52.6396 28.1646L57.8173 23.0229L62.5922 27.7646L71.0491 19.3667L76.2267 24.5083ZM51.7191 109.688L59.0829 117H0V0H88.3655V73.2964L81.0017 80.6089V7.3125H7.36379V109.688H51.7191ZM102 83.0083L69.956 114.886L54.4805 99.4614L59.6582 94.3198L69.956 104.489L96.8223 77.8667L102 83.0083Z" fill="#202020"/>
</svg>
