<svg width="125" height="125" viewBox="0 0 125 125" fill="none" xmlns="http://www.w3.org/2000/svg">
<path d="M26.1785 15.4342C20.1548 19.3157 9.21045 15.2007 4.74518 21.7204C3.38516 23.7049 4.05641 26.3315 5.39892 31.5845L17.0145 88.6272C19.6411 98.8883 20.9486 104.019 25.0286 107.013C26.6921 108.239 28.4141 108.811 30.2644 109.062M26.1785 15.4342C34.2568 10.222 27.2875 4 39.0198 4L51.5985 13.8816C56.6124 17.8156 59.1165 19.7884 59.3032 22.5667C59.49 25.3509 57.2778 27.6739 52.8476 32.3141L49.6139 35.6995C47.4017 38.0167 46.2927 39.1782 44.9677 39.079C43.6427 38.9797 42.6971 37.6665 40.8234 35.0457L26.1785 15.4342ZM98.5568 15.4342C104.581 19.3157 115.525 15.2007 119.99 21.7204C121.35 23.7049 120.679 26.3315 119.336 31.5845L107.721 88.6272C105.094 98.8883 103.787 104.019 99.7125 107.013C98.0431 108.239 96.3154 108.811 94.4709 109.062M98.5568 15.4342C90.4784 10.222 97.4478 4 85.7155 4L73.1368 13.8816C68.1229 17.8156 65.6188 19.7884 65.4321 22.5667C65.2453 25.3509 67.4575 27.6739 71.8877 32.3141L75.1214 35.6995C77.3336 38.0167 78.4426 39.1782 79.7676 39.079C81.0926 38.9797 82.0382 37.6665 83.9119 35.0457L98.5568 15.4342ZM52.3689 33.1838L57.4471 41.6588C58.6437 43.6433 59.239 44.6472 59.42 45.762C59.5951 46.8827 59.3324 48.015 58.8129 50.2739L48.0671 97.0439C46.6254 105.134 50.898 109.068 55.0481 114.262C58.4977 118.582 60.2255 120.735 62.3735 120.735C64.5215 120.735 66.2492 118.576 69.6989 114.256C73.8431 109.073 78.1216 105.134 76.6799 97.0439L65.9282 50.2739C65.4087 48.015 65.1519 46.8827 65.327 45.762C65.5021 44.6472 66.1033 43.6491 67.294 41.6588L72.3722 33.1838" stroke="#FFDFED" stroke-width="7.94118" stroke-linecap="round" stroke-linejoin="round"/>
</svg>
