<svg width="117" height="118" viewBox="0 0 117 118" fill="none" xmlns="http://www.w3.org/2000/svg">
<path d="M33.93 0.735352H83.07C101.79 0.735352 117 15.9454 117 34.6654V83.8054C117 92.8042 113.425 101.434 107.062 107.797C100.699 114.161 92.0688 117.735 83.07 117.735H33.93C15.21 117.735 0 102.525 0 83.8054V34.6654C0 25.6666 3.57476 17.0363 9.93787 10.6732C16.301 4.31011 24.9312 0.735352 33.93 0.735352ZM32.76 12.4354C27.1745 12.4354 21.8178 14.6542 17.8683 18.6037C13.9188 22.5532 11.7 27.9099 11.7 33.4954V84.9753C11.7 96.6168 21.1185 106.035 32.76 106.035H84.24C89.8255 106.035 95.1822 103.817 99.1317 99.867C103.081 95.9175 105.3 90.5608 105.3 84.9753V33.4954C105.3 21.8539 95.8815 12.4354 84.24 12.4354H32.76ZM89.2125 21.2104C91.1519 21.2104 93.0119 21.9808 94.3832 23.3521C95.7546 24.7235 96.525 26.5835 96.525 28.5229C96.525 30.4622 95.7546 32.3222 94.3832 33.6936C93.0119 35.0649 91.1519 35.8354 89.2125 35.8354C87.2731 35.8354 85.4131 35.0649 84.0418 33.6936C82.6704 32.3222 81.9 30.4622 81.9 28.5229C81.9 26.5835 82.6704 24.7235 84.0418 23.3521C85.4131 21.9808 87.2731 21.2104 89.2125 21.2104ZM58.5 29.9854C66.2576 29.9854 73.6974 33.067 79.1829 38.5525C84.6683 44.0379 87.75 51.4778 87.75 59.2354C87.75 66.9929 84.6683 74.4328 79.1829 79.9182C73.6974 85.4037 66.2576 88.4854 58.5 88.4854C50.7424 88.4854 43.3026 85.4037 37.8171 79.9182C32.3317 74.4328 29.25 66.9929 29.25 59.2354C29.25 51.4778 32.3317 44.0379 37.8171 38.5525C43.3026 33.067 50.7424 29.9854 58.5 29.9854ZM58.5 41.6854C53.8454 41.6854 49.3815 43.5344 46.0903 46.8256C42.799 50.1169 40.95 54.5808 40.95 59.2354C40.95 63.8899 42.799 68.3538 46.0903 71.6451C49.3815 74.9363 53.8454 76.7854 58.5 76.7854C63.1545 76.7854 67.6185 74.9363 70.9097 71.6451C74.201 68.3538 76.05 63.8899 76.05 59.2354C76.05 54.5808 74.201 50.1169 70.9097 46.8256C67.6185 43.5344 63.1545 41.6854 58.5 41.6854Z" fill="#202020"/>
</svg>
