<svg width="124" height="118" viewBox="0 0 124 118" fill="none" xmlns="http://www.w3.org/2000/svg">
<path d="M123.5 0.735352V81.9854C123.5 88.019 121.103 93.8056 116.837 98.072C112.57 102.338 106.784 104.735 100.75 104.735C94.7163 104.735 88.9298 102.338 84.6633 98.072C80.3969 93.8056 78 88.019 78 81.9854C78 75.9517 80.3969 70.1651 84.6633 65.8987C88.9298 61.6322 94.7163 59.2354 100.75 59.2354C104.26 59.2354 107.575 60.0154 110.5 61.4454V23.2903L45.5 37.1354V94.9854C45.5 101.019 43.1031 106.806 38.8367 111.072C34.5702 115.338 28.7837 117.735 22.75 117.735C16.7163 117.735 10.9298 115.338 6.66332 111.072C2.39687 106.806 0 101.019 0 94.9854C0 88.9517 2.39687 83.1651 6.66332 78.8987C10.9298 74.6322 16.7163 72.2354 22.75 72.2354C26.26 72.2354 29.575 73.0154 32.5 74.4454V20.2354L123.5 0.735352Z" fill="#FFDFED"/>
</svg>
