<svg width="109" height="118" viewBox="0 0 109 118" fill="none" xmlns="http://www.w3.org/2000/svg">
<path d="M48.5762 29.9848H60.0674V59.235H102.898C104.422 59.235 105.883 58.6296 106.961 57.5521C108.038 56.4746 108.644 55.0132 108.644 53.4894V35.7304C108.644 34.2065 108.038 32.7451 106.961 31.6676C105.883 30.5901 104.422 29.9848 102.898 29.9848H87.2752C89.3909 25.6276 89.8836 20.6588 88.6649 15.971C87.4462 11.2831 84.596 7.1834 80.6262 4.40819C76.6564 1.63298 71.8272 0.364148 67.0059 0.829598C62.1847 1.29505 57.6874 3.46428 54.3218 6.94766C50.9504 3.48337 46.4569 1.33091 41.6445 0.87498C36.832 0.419051 32.0142 1.68937 28.0523 4.4589C24.0903 7.22842 21.2423 11.3166 20.0174 15.9929C18.7924 20.6691 19.2703 25.6285 21.3657 29.9848H5.74557C4.22175 29.9848 2.76034 30.5901 1.68284 31.6676C0.605335 32.7451 0 34.2065 0 35.7304V53.4894C0 55.0132 0.605335 56.4746 1.68284 57.5521C2.21636 58.0857 2.84975 58.5089 3.54684 58.7976C4.24392 59.0864 4.99105 59.235 5.74557 59.235H48.5762V29.9848ZM60.0674 21.1053C60.0674 19.3491 60.5881 17.6323 61.5638 16.1721C62.5395 14.7118 63.9263 13.5737 65.5488 12.9017C67.1713 12.2296 68.9567 12.0537 70.6792 12.3964C72.4016 12.739 73.9838 13.5847 75.2256 14.8265C76.4675 16.0683 77.3132 17.6505 77.6558 19.373C77.9984 21.0954 77.8225 22.8808 77.1505 24.5033C76.4784 26.1258 75.3403 27.5126 73.8801 28.4883C72.4198 29.464 70.7031 29.9848 68.9469 29.9848H60.0674V21.1053ZM30.8172 21.1053C30.8172 18.7503 31.7527 16.4917 33.4179 14.8265C35.0831 13.1613 37.3417 12.2257 39.6967 12.2257C42.0517 12.2257 44.3102 13.1613 45.9755 14.8265C47.6407 16.4917 48.5762 18.7503 48.5762 21.1053V29.9848H39.6967C37.3417 29.9848 35.0831 29.0493 33.4179 27.384C31.7527 25.7188 30.8172 23.4603 30.8172 21.1053ZM60.0674 117.735H94.5408C96.0646 117.735 97.526 117.13 98.6035 116.053C99.681 114.975 100.286 113.514 100.286 111.99V67.5922H60.0674V117.735ZM8.3572 111.99C8.3572 113.514 8.96253 114.975 10.04 116.053C11.1175 117.13 12.5789 117.735 14.1028 117.735H48.5762V67.5922H8.3572V111.99Z" fill="#202020"/>
</svg>
