<svg width="137" height="147" viewBox="0 0 137 147" fill="none" xmlns="http://www.w3.org/2000/svg">
<path fill-rule="evenodd" clip-rule="evenodd" d="M32.1269 3.54444C33.1221 0.880074 35.9733 -0.569396 38.6854 0.210324L78.3031 11.6004C81.0169 12.3806 82.6847 15.1321 82.1383 17.9276L70.6247 76.828C70.624 76.8316 70.6234 76.8351 70.6227 76.8387C69.8053 81.1009 68.1201 85.1451 65.6738 88.7152C63.2255 92.2882 60.0683 95.3082 56.4026 97.5834C52.7369 99.8586 48.6428 101.339 44.3802 101.931C41.9262 102.272 39.4473 102.315 36.9959 102.062L28.2227 133.128L39.0888 136.257C41.9688 137.086 43.6379 140.116 42.8167 143.024C41.9955 145.933 38.995 147.618 36.115 146.789L20.3359 142.245C20.2342 142.222 20.1327 142.196 20.0312 142.167C19.9299 142.138 19.8302 142.106 19.7319 142.071L3.9371 137.523C1.05705 136.694 -0.611965 133.664 0.209241 130.756C1.03045 127.847 4.0309 126.162 6.91094 126.991L17.7932 130.125L26.5652 99.0626C24.3446 97.9711 22.255 96.6129 20.3435 95.0131C17.0306 92.2405 14.3247 88.8026 12.3977 84.9177C10.4706 81.0328 9.36445 76.7857 9.1494 72.4461C8.93451 68.11 9.61399 63.7761 11.1447 59.7191C11.146 59.7158 11.1472 59.7125 11.1484 59.7093L32.1269 3.54444ZM35.5491 90.7357C35.266 90.5963 34.9668 90.4799 34.6533 90.3897C34.338 90.2988 34.0212 90.2382 33.706 90.206C31.359 89.408 29.1747 88.1799 27.2639 86.5807C25.1085 84.7768 23.3481 82.5401 22.0944 80.0126C20.8407 77.4851 20.121 74.722 19.9811 71.8987C19.8412 69.0753 20.2841 66.2535 21.2817 63.6122L21.2887 63.5933L30.0474 40.1442L64.7699 50.2276L59.9807 74.7283L59.9806 74.7283L59.9766 74.7495C59.4453 77.525 58.3484 80.1587 56.7556 82.4833C55.1627 84.8079 53.1086 86.7727 50.7237 88.2529C48.3388 89.7331 45.6752 90.6964 42.902 91.0817C40.4481 91.4227 37.9557 91.3044 35.5491 90.7357ZM66.8779 39.4439L70.5314 20.7532L40.5137 12.1231L33.8874 29.8635L66.8779 39.4439ZM98.312 0.207956C101.021 -0.566324 103.867 0.882455 104.862 3.54269L125.869 59.7264L125.869 59.7277C128.068 65.6122 128.462 72.0285 127.002 78.1424C125.541 84.2564 122.293 89.7853 117.68 94.0104C115.49 96.0163 113.04 97.6843 110.41 98.9765L119.207 130.125L130.089 126.991C132.969 126.162 135.97 127.847 136.791 130.756C137.612 133.664 135.943 136.694 133.063 137.523L117.268 142.071C117.17 142.106 117.07 142.138 116.969 142.167C116.867 142.196 116.766 142.222 116.664 142.245L100.885 146.789C98.005 147.618 95.0045 145.933 94.1833 143.024C93.3621 140.116 95.0312 137.086 97.9112 136.257L108.777 133.128L99.9795 101.975C94.1852 102.572 88.3326 101.511 83.0953 98.9018C80.4096 97.5638 79.3065 94.2804 80.6315 91.5682C81.9566 88.856 85.208 87.742 87.8937 89.0801C91.5275 90.8905 95.6165 91.5551 99.6293 90.9876C100.422 90.8754 101.205 90.7162 101.974 90.5116C102.096 90.4668 102.22 90.4261 102.347 90.3897C102.475 90.3526 102.604 90.3205 102.733 90.2934C105.564 89.4193 108.183 87.9234 110.394 85.8978C113.396 83.149 115.509 79.5519 116.459 75.5742C117.409 71.5965 117.153 67.4221 115.722 63.5937L106.999 40.2625L93.674 44.1323C90.7958 44.9682 87.7916 43.2897 86.9638 40.3832C86.136 37.4767 87.7982 34.4429 90.6764 33.607L103.155 29.9828L96.4743 12.1152L95.0182 12.5313C92.1366 13.3548 89.1394 11.6633 88.324 8.75328C87.5085 5.84325 89.1835 2.81663 92.0651 1.99313L98.312 0.207956Z" fill="#202020"/>
</svg>
